<mxfile host="app.diagrams.net" modified="2021-11-24T07:54:26.596Z" agent="5.0 (X11)" etag="WJSwJ3CCazFwMrQI97Lx" version="15.8.4" type="github">
  <diagram id="Ng_SGSZV4RMIjECyI89O" name="第 1 页">
    <mxGraphModel dx="1152" dy="731" grid="1" gridSize="10" guides="1" tooltips="1" connect="1" arrows="1" fold="1" page="1" pageScale="1" pageWidth="827" pageHeight="1169" math="0" shadow="0">
      <root>
        <mxCell id="0" />
        <mxCell id="1" parent="0" />
        <mxCell id="vJngqabf1iKPreX5U7tw-2" value="App Image" style="rounded=1;whiteSpace=wrap;html=1;fillColor=#647687;strokeColor=#314354;fontColor=#ffffff;" vertex="1" parent="1">
          <mxGeometry x="269" y="370" width="401" height="60" as="geometry" />
        </mxCell>
        <mxCell id="vJngqabf1iKPreX5U7tw-4" value="" style="rounded=1;whiteSpace=wrap;html=1;fillColor=#dae8fc;strokeColor=#6c8ebf;" vertex="1" parent="1">
          <mxGeometry x="269" y="270" width="141" height="90" as="geometry" />
        </mxCell>
        <mxCell id="vJngqabf1iKPreX5U7tw-5" value="" style="rounded=1;whiteSpace=wrap;html=1;fillColor=#ffe6cc;strokeColor=#d79b00;" vertex="1" parent="1">
          <mxGeometry x="414" y="220" width="256" height="140" as="geometry" />
        </mxCell>
        <mxCell id="vJngqabf1iKPreX5U7tw-7" value="包原始信息" style="text;html=1;resizable=0;autosize=1;align=center;verticalAlign=middle;points=[];fillColor=none;strokeColor=none;rounded=0;" vertex="1" parent="1">
          <mxGeometry x="289" y="330" width="80" height="20" as="geometry" />
        </mxCell>
        <mxCell id="vJngqabf1iKPreX5U7tw-8" value="" style="rounded=1;whiteSpace=wrap;html=1;fillColor=#1ba1e2;strokeColor=#006EAF;fontColor=#ffffff;" vertex="1" parent="1">
          <mxGeometry x="510" y="245" width="150" height="90" as="geometry" />
        </mxCell>
        <mxCell id="vJngqabf1iKPreX5U7tw-10" value="date" style="text;html=1;resizable=0;autosize=1;align=center;verticalAlign=middle;points=[];fillColor=none;strokeColor=none;rounded=0;" vertex="1" parent="1">
          <mxGeometry x="505" y="340" width="40" height="20" as="geometry" />
        </mxCell>
        <mxCell id="vJngqabf1iKPreX5U7tw-12" value="source" style="text;html=1;resizable=0;autosize=1;align=center;verticalAlign=middle;points=[];fillColor=none;strokeColor=none;rounded=0;" vertex="1" parent="1">
          <mxGeometry x="555" y="315" width="50" height="20" as="geometry" />
        </mxCell>
        <mxCell id="vJngqabf1iKPreX5U7tw-13" value="icon图标" style="rounded=1;whiteSpace=wrap;html=1;fillColor=#f8cecc;strokeColor=#b85450;" vertex="1" parent="1">
          <mxGeometry x="420" y="300" width="70" height="35" as="geometry" />
        </mxCell>
        <mxCell id="vJngqabf1iKPreX5U7tw-15" value="desktop文件" style="rounded=1;whiteSpace=wrap;html=1;fillColor=#e1d5e7;strokeColor=#9673a6;" vertex="1" parent="1">
          <mxGeometry x="420" y="250" width="70" height="35" as="geometry" />
        </mxCell>
        <mxCell id="vJngqabf1iKPreX5U7tw-16" value="file1" style="rounded=1;whiteSpace=wrap;html=1;fillColor=#cdeb8b;strokeColor=#36393d;" vertex="1" parent="1">
          <mxGeometry x="515" y="250" width="40" height="30" as="geometry" />
        </mxCell>
        <mxCell id="vJngqabf1iKPreX5U7tw-17" value="dir1" style="rounded=1;whiteSpace=wrap;html=1;fillColor=#ffcccc;strokeColor=#36393d;" vertex="1" parent="1">
          <mxGeometry x="560" y="250" width="40" height="30" as="geometry" />
        </mxCell>
        <mxCell id="vJngqabf1iKPreX5U7tw-18" value="dir2" style="rounded=1;whiteSpace=wrap;html=1;fillColor=#ffe6cc;strokeColor=#d79b00;" vertex="1" parent="1">
          <mxGeometry x="605" y="250" width="40" height="30" as="geometry" />
        </mxCell>
        <mxCell id="vJngqabf1iKPreX5U7tw-22" value="file2" style="rounded=1;whiteSpace=wrap;html=1;fillColor=#fff2cc;strokeColor=#d6b656;" vertex="1" parent="1">
          <mxGeometry x="517" y="285" width="40" height="30" as="geometry" />
        </mxCell>
        <mxCell id="vJngqabf1iKPreX5U7tw-23" value="fie3" style="rounded=1;whiteSpace=wrap;html=1;fillColor=#f8cecc;strokeColor=#b85450;" vertex="1" parent="1">
          <mxGeometry x="562" y="285" width="40" height="30" as="geometry" />
        </mxCell>
        <mxCell id="vJngqabf1iKPreX5U7tw-24" value="file4" style="rounded=1;whiteSpace=wrap;html=1;" vertex="1" parent="1">
          <mxGeometry x="607" y="285" width="40" height="30" as="geometry" />
        </mxCell>
      </root>
    </mxGraphModel>
  </diagram>
</mxfile>
